%TF.GenerationSoftware,KiCad,Pcbnew,7.0.1*%
%TF.CreationDate,2023-03-30T15:17:14+02:00*%
%TF.ProjectId,BalancedSurroundOutBus,42616c61-6e63-4656-9453-7572726f756e,rev?*%
%TF.SameCoordinates,Original*%
%TF.FileFunction,Copper,L2,Bot*%
%TF.FilePolarity,Positive*%
%FSLAX46Y46*%
G04 Gerber Fmt 4.6, Leading zero omitted, Abs format (unit mm)*
G04 Created by KiCad (PCBNEW 7.0.1) date 2023-03-30 15:17:14*
%MOMM*%
%LPD*%
G01*
G04 APERTURE LIST*
G04 Aperture macros list*
%AMRoundRect*
0 Rectangle with rounded corners*
0 $1 Rounding radius*
0 $2 $3 $4 $5 $6 $7 $8 $9 X,Y pos of 4 corners*
0 Add a 4 corners polygon primitive as box body*
4,1,4,$2,$3,$4,$5,$6,$7,$8,$9,$2,$3,0*
0 Add four circle primitives for the rounded corners*
1,1,$1+$1,$2,$3*
1,1,$1+$1,$4,$5*
1,1,$1+$1,$6,$7*
1,1,$1+$1,$8,$9*
0 Add four rect primitives between the rounded corners*
20,1,$1+$1,$2,$3,$4,$5,0*
20,1,$1+$1,$4,$5,$6,$7,0*
20,1,$1+$1,$6,$7,$8,$9,0*
20,1,$1+$1,$8,$9,$2,$3,0*%
G04 Aperture macros list end*
%TA.AperFunction,ComponentPad*%
%ADD10R,1.700000X1.700000*%
%TD*%
%TA.AperFunction,ComponentPad*%
%ADD11O,1.700000X1.700000*%
%TD*%
%TA.AperFunction,ComponentPad*%
%ADD12R,1.600000X1.600000*%
%TD*%
%TA.AperFunction,ComponentPad*%
%ADD13C,1.600000*%
%TD*%
%TA.AperFunction,ComponentPad*%
%ADD14C,4.000000*%
%TD*%
%TA.AperFunction,SMDPad,CuDef*%
%ADD15RoundRect,0.160000X-0.160000X0.197500X-0.160000X-0.197500X0.160000X-0.197500X0.160000X0.197500X0*%
%TD*%
%TA.AperFunction,ComponentPad*%
%ADD16R,1.350000X1.350000*%
%TD*%
%TA.AperFunction,ComponentPad*%
%ADD17O,1.350000X1.350000*%
%TD*%
%TA.AperFunction,SMDPad,CuDef*%
%ADD18R,1.500000X1.000000*%
%TD*%
%TA.AperFunction,SMDPad,CuDef*%
%ADD19RoundRect,0.150000X0.587500X0.150000X-0.587500X0.150000X-0.587500X-0.150000X0.587500X-0.150000X0*%
%TD*%
%TA.AperFunction,SMDPad,CuDef*%
%ADD20RoundRect,0.135000X-0.185000X0.135000X-0.185000X-0.135000X0.185000X-0.135000X0.185000X0.135000X0*%
%TD*%
%TA.AperFunction,SMDPad,CuDef*%
%ADD21RoundRect,0.135000X-0.135000X-0.185000X0.135000X-0.185000X0.135000X0.185000X-0.135000X0.185000X0*%
%TD*%
%TA.AperFunction,SMDPad,CuDef*%
%ADD22RoundRect,0.140000X0.170000X-0.140000X0.170000X0.140000X-0.170000X0.140000X-0.170000X-0.140000X0*%
%TD*%
%TA.AperFunction,SMDPad,CuDef*%
%ADD23RoundRect,0.160000X-0.197500X-0.160000X0.197500X-0.160000X0.197500X0.160000X-0.197500X0.160000X0*%
%TD*%
%TA.AperFunction,ViaPad*%
%ADD24C,0.800000*%
%TD*%
%TA.AperFunction,Conductor*%
%ADD25C,0.150000*%
%TD*%
G04 APERTURE END LIST*
%TA.AperFunction,EtchedComponent*%
%TO.C,JP1*%
G36*
X169350000Y-104350000D02*
G01*
X168950000Y-104350000D01*
X168950000Y-103850000D01*
X169350000Y-103850000D01*
X169350000Y-104350000D01*
G37*
%TD.AperFunction*%
%TA.AperFunction,EtchedComponent*%
G36*
X168550000Y-104350000D02*
G01*
X168150000Y-104350000D01*
X168150000Y-103850000D01*
X168550000Y-103850000D01*
X168550000Y-104350000D01*
G37*
%TD.AperFunction*%
%TD*%
D10*
%TO.P,ON1,1,Pin_1*%
%TO.N,GND*%
X123000000Y-103475000D03*
D11*
%TO.P,ON1,2,Pin_2*%
%TO.N,Net-(JP1-A)*%
X123000000Y-106015000D03*
%TD*%
D12*
%TO.P,J2,1,VBUS*%
%TO.N,Net-(J2-VBUS)*%
X107750000Y-87000000D03*
D13*
%TO.P,J2,2,D-*%
%TO.N,unconnected-(J2-D--Pad2)*%
X110250000Y-87000000D03*
%TO.P,J2,3,D+*%
%TO.N,unconnected-(J2-D+-Pad3)*%
X110250000Y-85000000D03*
%TO.P,J2,4,GND*%
%TO.N,GND*%
X107750000Y-85000000D03*
D14*
%TO.P,J2,5,Shield*%
X103000000Y-82140000D03*
X115000000Y-82140000D03*
%TD*%
D10*
%TO.P,GND1,1,Pin_1*%
%TO.N,GND*%
X200225000Y-119750000D03*
D11*
%TO.P,GND1,2,Pin_2*%
X202765000Y-119750000D03*
%TD*%
D10*
%TO.P,PWR1,1,Pin_1*%
%TO.N,Net-(J2-VBUS)*%
X107725000Y-93500000D03*
D11*
%TO.P,PWR1,2,Pin_2*%
%TO.N,GND*%
X110265000Y-93500000D03*
%TD*%
D10*
%TO.P,J3,1,Pin_1*%
%TO.N,GND*%
X137750000Y-131500000D03*
D11*
%TO.P,J3,2,Pin_2*%
%TO.N,/VIN*%
X137750000Y-134040000D03*
%TO.P,J3,3,Pin_3*%
%TO.N,unconnected-(J3-Pin_3-Pad3)*%
X140290000Y-131500000D03*
%TO.P,J3,4,Pin_4*%
%TO.N,/VIN*%
X140290000Y-134040000D03*
%TO.P,J3,5,Pin_5*%
%TO.N,Net-(J3-Pin_5)*%
X142830000Y-131500000D03*
%TO.P,J3,6,Pin_6*%
%TO.N,GND*%
X142830000Y-134040000D03*
%TO.P,J3,7,Pin_7*%
%TO.N,Net-(J3-Pin_7)*%
X145370000Y-131500000D03*
%TO.P,J3,8,Pin_8*%
%TO.N,GND*%
X145370000Y-134040000D03*
%TO.P,J3,9,Pin_9*%
%TO.N,/I2S_CH12*%
X147910000Y-131500000D03*
%TO.P,J3,10,Pin_10*%
%TO.N,GND*%
X147910000Y-134040000D03*
%TO.P,J3,11,Pin_11*%
%TO.N,/LRCLK*%
X150450000Y-131500000D03*
%TO.P,J3,12,Pin_12*%
%TO.N,unconnected-(J3-Pin_12-Pad12)*%
X150450000Y-134040000D03*
%TD*%
D10*
%TO.P,J5,1,Pin_1*%
%TO.N,GND*%
X229650000Y-131475000D03*
D11*
%TO.P,J5,2,Pin_2*%
%TO.N,/VIN*%
X229650000Y-134015000D03*
%TO.P,J5,3,Pin_3*%
%TO.N,unconnected-(J5-Pin_3-Pad3)*%
X232190000Y-131475000D03*
%TO.P,J5,4,Pin_4*%
%TO.N,/VIN*%
X232190000Y-134015000D03*
%TO.P,J5,5,Pin_5*%
%TO.N,Net-(J5-Pin_5)*%
X234730000Y-131475000D03*
%TO.P,J5,6,Pin_6*%
%TO.N,GND*%
X234730000Y-134015000D03*
%TO.P,J5,7,Pin_7*%
%TO.N,Net-(J5-Pin_7)*%
X237270000Y-131475000D03*
%TO.P,J5,8,Pin_8*%
%TO.N,GND*%
X237270000Y-134015000D03*
%TO.P,J5,9,Pin_9*%
%TO.N,/I2S_CH56*%
X239810000Y-131475000D03*
%TO.P,J5,10,Pin_10*%
%TO.N,GND*%
X239810000Y-134015000D03*
%TO.P,J5,11,Pin_11*%
%TO.N,/LRCLK*%
X242350000Y-131475000D03*
%TO.P,J5,12,Pin_12*%
%TO.N,unconnected-(J5-Pin_12-Pad12)*%
X242350000Y-134015000D03*
%TD*%
D15*
%TO.P,R4,1*%
%TO.N,/SCLK*%
X193250000Y-118402500D03*
%TO.P,R4,2*%
%TO.N,Net-(J4-Pin_7)*%
X193250000Y-119597500D03*
%TD*%
%TO.P,R5,1*%
%TO.N,/MCLK*%
X190500000Y-116402500D03*
%TO.P,R5,2*%
%TO.N,Net-(J5-Pin_5)*%
X190500000Y-117597500D03*
%TD*%
%TO.P,R2,1*%
%TO.N,/SCLK*%
X186200000Y-125502500D03*
%TO.P,R2,2*%
%TO.N,Net-(J3-Pin_7)*%
X186200000Y-126697500D03*
%TD*%
D16*
%TO.P,J1,1,Pin_1*%
%TO.N,/I2S_IN_CH12*%
X101000000Y-127000000D03*
D17*
%TO.P,J1,2,Pin_2*%
%TO.N,/I2S_CH12*%
X101000000Y-125000000D03*
%TO.P,J1,3,Pin_3*%
%TO.N,unconnected-(J1-Pin_3-Pad3)*%
X99000000Y-127000000D03*
%TO.P,J1,4,Pin_4*%
%TO.N,/I2S_CH34*%
X99000000Y-125000000D03*
%TO.P,J1,5,Pin_5*%
%TO.N,unconnected-(J1-Pin_5-Pad5)*%
X97000000Y-127000000D03*
%TO.P,J1,6,Pin_6*%
%TO.N,/I2S_CH56*%
X97000000Y-125000000D03*
%TO.P,J1,7,Pin_7*%
%TO.N,unconnected-(J1-Pin_7-Pad7)*%
X95000000Y-127000000D03*
%TO.P,J1,8,Pin_8*%
%TO.N,unconnected-(J1-Pin_8-Pad8)*%
X95000000Y-125000000D03*
%TO.P,J1,9,Pin_9*%
%TO.N,/SCLK*%
X93000000Y-127000000D03*
%TO.P,J1,10,Pin_10*%
%TO.N,/MCLK*%
X93000000Y-125000000D03*
%TO.P,J1,11,Pin_11*%
%TO.N,/LRCLK*%
X91000000Y-127000000D03*
%TO.P,J1,12,Pin_12*%
%TO.N,GND*%
X91000000Y-125000000D03*
%TD*%
D18*
%TO.P,JP1,1,A*%
%TO.N,Net-(JP1-A)*%
X168750000Y-103450000D03*
%TO.P,JP1,2,C*%
%TO.N,Net-(JP1-C)*%
X168750000Y-104750000D03*
%TO.P,JP1,3,B*%
%TO.N,Net-(J2-VBUS)*%
X168750000Y-106050000D03*
%TD*%
D19*
%TO.P,Q1,1,G*%
%TO.N,Net-(Q1-G)*%
X180187500Y-104050000D03*
%TO.P,Q1,2,S*%
%TO.N,Net-(J2-VBUS)*%
X180187500Y-105950000D03*
%TO.P,Q1,3,D*%
%TO.N,/VIN*%
X178312500Y-105000000D03*
%TD*%
D20*
%TO.P,R8,1*%
%TO.N,Net-(Q1-G)*%
X184000000Y-103740000D03*
%TO.P,R8,2*%
%TO.N,GND*%
X184000000Y-104760000D03*
%TD*%
D15*
%TO.P,R3,1*%
%TO.N,/MCLK*%
X188750000Y-116402500D03*
%TO.P,R3,2*%
%TO.N,Net-(J4-Pin_5)*%
X188750000Y-117597500D03*
%TD*%
%TO.P,R1,1*%
%TO.N,/MCLK*%
X187000000Y-117502500D03*
%TO.P,R1,2*%
%TO.N,Net-(J3-Pin_5)*%
X187000000Y-118697500D03*
%TD*%
D10*
%TO.P,J4,1,Pin_1*%
%TO.N,GND*%
X183650000Y-131475000D03*
D11*
%TO.P,J4,2,Pin_2*%
%TO.N,/VIN*%
X183650000Y-134015000D03*
%TO.P,J4,3,Pin_3*%
%TO.N,unconnected-(J4-Pin_3-Pad3)*%
X186190000Y-131475000D03*
%TO.P,J4,4,Pin_4*%
%TO.N,/VIN*%
X186190000Y-134015000D03*
%TO.P,J4,5,Pin_5*%
%TO.N,Net-(J4-Pin_5)*%
X188730000Y-131475000D03*
%TO.P,J4,6,Pin_6*%
%TO.N,GND*%
X188730000Y-134015000D03*
%TO.P,J4,7,Pin_7*%
%TO.N,Net-(J4-Pin_7)*%
X191270000Y-131475000D03*
%TO.P,J4,8,Pin_8*%
%TO.N,GND*%
X191270000Y-134015000D03*
%TO.P,J4,9,Pin_9*%
%TO.N,/I2S_CH34*%
X193810000Y-131475000D03*
%TO.P,J4,10,Pin_10*%
%TO.N,GND*%
X193810000Y-134015000D03*
%TO.P,J4,11,Pin_11*%
%TO.N,/LRCLK*%
X196350000Y-131475000D03*
%TO.P,J4,12,Pin_12*%
%TO.N,unconnected-(J4-Pin_12-Pad12)*%
X196350000Y-134015000D03*
%TD*%
D21*
%TO.P,R7,1*%
%TO.N,Net-(JP1-C)*%
X173990000Y-104000000D03*
%TO.P,R7,2*%
%TO.N,Net-(Q1-G)*%
X175010000Y-104000000D03*
%TD*%
D22*
%TO.P,C1,1*%
%TO.N,/VIN*%
X182250000Y-104730000D03*
%TO.P,C1,2*%
%TO.N,Net-(Q1-G)*%
X182250000Y-103770000D03*
%TD*%
D23*
%TO.P,R6,1*%
%TO.N,/SCLK*%
X195902500Y-116250000D03*
%TO.P,R6,2*%
%TO.N,Net-(J5-Pin_7)*%
X197097500Y-116250000D03*
%TD*%
D24*
%TO.N,/I2S_CH12*%
X183500000Y-122250000D03*
X141600000Y-130600000D03*
%TO.N,/I2S_CH34*%
X187000000Y-123300000D03*
X186250000Y-121250000D03*
%TO.N,/I2S_CH56*%
X184900000Y-118100000D03*
X184900000Y-115500000D03*
%TO.N,GND*%
X184000000Y-105800000D03*
%TO.N,/LRCLK*%
X196250497Y-118750000D03*
X196250000Y-114250000D03*
%TO.N,/SCLK*%
X186000000Y-119800000D03*
X185700000Y-117400000D03*
X186250000Y-115774500D03*
X195000000Y-116250000D03*
X195050000Y-118650000D03*
X186200000Y-124400000D03*
%TO.N,/MCLK*%
X191250000Y-116500000D03*
%TO.N,/VIN*%
X197250000Y-118750000D03*
X199750000Y-134000000D03*
X194000000Y-110500000D03*
X197000000Y-113500000D03*
%TD*%
D25*
%TO.N,/I2S_CH12*%
X141650000Y-130600000D02*
X147000000Y-125250000D01*
X147000000Y-125250000D02*
X182250000Y-125250000D01*
X101000000Y-120000000D02*
X101000000Y-125000000D01*
X101750000Y-119250000D02*
X101000000Y-120000000D01*
X182750000Y-119250000D02*
X101750000Y-119250000D01*
X141600000Y-130600000D02*
X141650000Y-130600000D01*
X182250000Y-125250000D02*
X183500000Y-124000000D01*
X183500000Y-124000000D02*
X183500000Y-120000000D01*
X183500000Y-120000000D02*
X182750000Y-119250000D01*
%TO.N,Net-(Q1-G)*%
X180137500Y-104100000D02*
X180187500Y-104050000D01*
X181460000Y-103740000D02*
X184000000Y-103740000D01*
X180187500Y-104050000D02*
X181150000Y-104050000D01*
X178300000Y-104100000D02*
X180137500Y-104100000D01*
X181150000Y-104050000D02*
X181460000Y-103740000D01*
X175010000Y-104000000D02*
X178200000Y-104000000D01*
X178200000Y-104000000D02*
X178300000Y-104100000D01*
%TO.N,/I2S_CH34*%
X187500000Y-131194009D02*
X187500000Y-132250000D01*
X99000000Y-120500000D02*
X99000000Y-125000000D01*
X187000000Y-123300000D02*
X187000000Y-130694009D01*
X187000000Y-130694009D02*
X187500000Y-131194009D01*
X183500000Y-118500000D02*
X101000000Y-118500000D01*
X186250000Y-121250000D02*
X183500000Y-118500000D01*
X187500000Y-132250000D02*
X188140000Y-132890000D01*
X192395000Y-132890000D02*
X193810000Y-131475000D01*
X188140000Y-132890000D02*
X192395000Y-132890000D01*
X101000000Y-118500000D02*
X99000000Y-120500000D01*
%TO.N,/I2S_CH56*%
X185300500Y-115099500D02*
X224099500Y-115099500D01*
X224099500Y-115099500D02*
X239810000Y-130810000D01*
X100250000Y-117750000D02*
X97000000Y-121000000D01*
X184550000Y-117750000D02*
X100250000Y-117750000D01*
X239810000Y-130810000D02*
X239810000Y-131475000D01*
X184900000Y-118100000D02*
X184550000Y-117750000D01*
X184900000Y-115500000D02*
X185300500Y-115099500D01*
X97000000Y-121000000D02*
X97000000Y-125000000D01*
%TO.N,GND*%
X184000000Y-104760000D02*
X184000000Y-105800000D01*
%TO.N,/LRCLK*%
X179250000Y-131500000D02*
X182890000Y-135140000D01*
X225125000Y-114250000D02*
X242350000Y-131475000D01*
X91000000Y-127000000D02*
X91950000Y-126050000D01*
X95250000Y-115750000D02*
X183550000Y-115750000D01*
X150450000Y-131500000D02*
X179250000Y-131500000D01*
X91950000Y-126050000D02*
X91950000Y-119050000D01*
X195225000Y-134190991D02*
X195225000Y-132600000D01*
X182890000Y-135140000D02*
X194275991Y-135140000D01*
X194275991Y-135140000D02*
X195225000Y-134190991D01*
X196350000Y-118849503D02*
X196350000Y-131475000D01*
X183550000Y-115750000D02*
X185050000Y-114250000D01*
X196250497Y-118750000D02*
X196350000Y-118849503D01*
X195225000Y-132600000D02*
X196350000Y-131475000D01*
X185050000Y-114250000D02*
X225125000Y-114250000D01*
X91950000Y-119050000D02*
X95250000Y-115750000D01*
%TO.N,Net-(J2-VBUS)*%
X115750000Y-108500000D02*
X166300000Y-108500000D01*
X107750000Y-100500000D02*
X107750000Y-87000000D01*
X115750000Y-108500000D02*
X107750000Y-100500000D01*
X166300000Y-108500000D02*
X168750000Y-106050000D01*
X168750000Y-106050000D02*
X180087500Y-106050000D01*
X180087500Y-106050000D02*
X180187500Y-105950000D01*
%TO.N,Net-(J3-Pin_5)*%
X187000000Y-118697500D02*
X187000000Y-122000000D01*
X148080000Y-126250000D02*
X142830000Y-131500000D01*
X187000000Y-122000000D02*
X182750000Y-126250000D01*
X182750000Y-126250000D02*
X148080000Y-126250000D01*
%TO.N,Net-(J3-Pin_7)*%
X184060037Y-126697500D02*
X186200000Y-126697500D01*
X145370000Y-131500000D02*
X149370000Y-127500000D01*
X183257537Y-127500000D02*
X184060037Y-126697500D01*
X149370000Y-127500000D02*
X183257537Y-127500000D01*
%TO.N,Net-(J4-Pin_5)*%
X188730000Y-123020000D02*
X188030000Y-123020000D01*
X188030000Y-126020000D02*
X188730000Y-126020000D01*
X188730000Y-122420000D02*
X189430000Y-122420000D01*
X188030000Y-129620000D02*
X188730000Y-129620000D01*
X188730000Y-121220000D02*
X189430000Y-121220000D01*
X189430000Y-123020000D02*
X188730000Y-123020000D01*
X188730000Y-125420000D02*
X188030000Y-125420000D01*
X188030000Y-122420000D02*
X188730000Y-122420000D01*
X188030000Y-121220000D02*
X188730000Y-121220000D01*
X188730000Y-129620000D02*
X189430000Y-129620000D01*
X189430000Y-129020000D02*
X188730000Y-129020000D01*
X189430000Y-124220000D02*
X188730000Y-124220000D01*
X188730000Y-130520000D02*
X188730000Y-131392732D01*
X188030000Y-120020000D02*
X188730000Y-120020000D01*
X189030000Y-118820000D02*
X189430000Y-118820000D01*
X188730000Y-124820000D02*
X189430000Y-124820000D01*
X189430000Y-119420000D02*
X189030000Y-119420000D01*
X188730000Y-128420000D02*
X189430000Y-128420000D01*
X188030000Y-124820000D02*
X188730000Y-124820000D01*
X189430000Y-127820000D02*
X188730000Y-127820000D01*
X189430000Y-126620000D02*
X188730000Y-126620000D01*
X189430000Y-125420000D02*
X188730000Y-125420000D01*
X188750000Y-117597500D02*
X188730000Y-117617500D01*
X189430000Y-130220000D02*
X189030000Y-130220000D01*
X188730000Y-117617500D02*
X188730000Y-118520000D01*
X188730000Y-127220000D02*
X189430000Y-127220000D01*
X189430000Y-120620000D02*
X188730000Y-120620000D01*
X188030000Y-127220000D02*
X188730000Y-127220000D01*
X188730000Y-131392732D02*
X188730000Y-131475000D01*
X188730000Y-126020000D02*
X189430000Y-126020000D01*
X188030000Y-123620000D02*
X188730000Y-123620000D01*
X189030000Y-119420000D02*
X188030000Y-119420000D01*
X188730000Y-126620000D02*
X188030000Y-126620000D01*
X188730000Y-129020000D02*
X188030000Y-129020000D01*
X188730000Y-121820000D02*
X188030000Y-121820000D01*
X188030000Y-128420000D02*
X188730000Y-128420000D01*
X188730000Y-127820000D02*
X188030000Y-127820000D01*
X188730000Y-120020000D02*
X189430000Y-120020000D01*
X188730000Y-123620000D02*
X189430000Y-123620000D01*
X188730000Y-120620000D02*
X188030000Y-120620000D01*
X189430000Y-121820000D02*
X188730000Y-121820000D01*
X188730000Y-124220000D02*
X188030000Y-124220000D01*
X188030000Y-129020000D02*
G75*
G03*
X187730000Y-129320000I0J-300000D01*
G01*
X187730000Y-119720000D02*
G75*
G03*
X188030000Y-120020000I300000J0D01*
G01*
X189730000Y-122720000D02*
G75*
G03*
X189430000Y-122420000I-300000J0D01*
G01*
X188030000Y-119420000D02*
G75*
G03*
X187730000Y-119720000I0J-300000D01*
G01*
X188030000Y-124220000D02*
G75*
G03*
X187730000Y-124520000I0J-300000D01*
G01*
X188030000Y-127820000D02*
G75*
G03*
X187730000Y-128120000I0J-300000D01*
G01*
X189730000Y-119120000D02*
G75*
G03*
X189430000Y-118820000I-300000J0D01*
G01*
X189730000Y-129920000D02*
G75*
G03*
X189430000Y-129620000I-300000J0D01*
G01*
X189730000Y-120320000D02*
G75*
G03*
X189430000Y-120020000I-300000J0D01*
G01*
X187730000Y-123320000D02*
G75*
G03*
X188030000Y-123620000I300000J0D01*
G01*
X188730000Y-118520000D02*
G75*
G03*
X189030000Y-118820000I300000J0D01*
G01*
X189430000Y-121820000D02*
G75*
G03*
X189730000Y-121520000I0J300000D01*
G01*
X187730000Y-120920000D02*
G75*
G03*
X188030000Y-121220000I300000J0D01*
G01*
X189430000Y-119420000D02*
G75*
G03*
X189730000Y-119120000I0J300000D01*
G01*
X189430000Y-126620000D02*
G75*
G03*
X189730000Y-126320000I0J300000D01*
G01*
X189730000Y-128720000D02*
G75*
G03*
X189430000Y-128420000I-300000J0D01*
G01*
X189430000Y-120620000D02*
G75*
G03*
X189730000Y-120320000I0J300000D01*
G01*
X187730000Y-128120000D02*
G75*
G03*
X188030000Y-128420000I300000J0D01*
G01*
X189030000Y-130220000D02*
G75*
G03*
X188730000Y-130520000I0J-300000D01*
G01*
X187730000Y-124520000D02*
G75*
G03*
X188030000Y-124820000I300000J0D01*
G01*
X188030000Y-125420000D02*
G75*
G03*
X187730000Y-125720000I0J-300000D01*
G01*
X188030000Y-126620000D02*
G75*
G03*
X187730000Y-126920000I0J-300000D01*
G01*
X187730000Y-129320000D02*
G75*
G03*
X188030000Y-129620000I300000J0D01*
G01*
X187730000Y-126920000D02*
G75*
G03*
X188030000Y-127220000I300000J0D01*
G01*
X189730000Y-121520000D02*
G75*
G03*
X189430000Y-121220000I-300000J0D01*
G01*
X189430000Y-129020000D02*
G75*
G03*
X189730000Y-128720000I0J300000D01*
G01*
X189430000Y-123020000D02*
G75*
G03*
X189730000Y-122720000I0J300000D01*
G01*
X188030000Y-123020000D02*
G75*
G03*
X187730000Y-123320000I0J-300000D01*
G01*
X189730000Y-123920000D02*
G75*
G03*
X189430000Y-123620000I-300000J0D01*
G01*
X189430000Y-130220000D02*
G75*
G03*
X189730000Y-129920000I0J300000D01*
G01*
X189730000Y-126320000D02*
G75*
G03*
X189430000Y-126020000I-300000J0D01*
G01*
X189430000Y-125420000D02*
G75*
G03*
X189730000Y-125120000I0J300000D01*
G01*
X189730000Y-127520000D02*
G75*
G03*
X189430000Y-127220000I-300000J0D01*
G01*
X187730000Y-122120000D02*
G75*
G03*
X188030000Y-122420000I300000J0D01*
G01*
X188030000Y-121820000D02*
G75*
G03*
X187730000Y-122120000I0J-300000D01*
G01*
X189430000Y-127820000D02*
G75*
G03*
X189730000Y-127520000I0J300000D01*
G01*
X189730000Y-125120000D02*
G75*
G03*
X189430000Y-124820000I-300000J0D01*
G01*
X187730000Y-125720000D02*
G75*
G03*
X188030000Y-126020000I300000J0D01*
G01*
X189430000Y-124220000D02*
G75*
G03*
X189730000Y-123920000I0J300000D01*
G01*
X188030000Y-120620000D02*
G75*
G03*
X187730000Y-120920000I0J-300000D01*
G01*
%TO.N,Net-(J4-Pin_7)*%
X193250000Y-123750000D02*
X193214645Y-123785355D01*
X192153982Y-124846016D02*
X193002512Y-125694546D01*
X190270000Y-128330000D02*
X191270000Y-128330000D01*
X193250000Y-121500000D02*
X192050000Y-121500000D01*
X193214645Y-124209621D02*
X193214644Y-124209621D01*
X192050000Y-122100000D02*
X193250000Y-122100000D01*
X190270000Y-127130000D02*
X190970000Y-127130000D01*
X193250000Y-119597500D02*
X193250000Y-120000000D01*
X193214644Y-124209621D02*
X193851041Y-124846018D01*
X191270000Y-128930000D02*
X190270000Y-128930000D01*
X192470000Y-130130000D02*
X191270000Y-130130000D01*
X191270000Y-129530000D02*
X192470000Y-129530000D01*
X193250000Y-123000000D02*
X193250000Y-123750000D01*
X193426777Y-125270282D02*
X192790381Y-124633886D01*
X192950000Y-120900000D02*
X194450000Y-120900000D01*
X190970000Y-126530000D02*
X190270000Y-126530000D01*
X190970000Y-127130000D02*
X192470000Y-127130000D01*
X192470000Y-127730000D02*
X191270000Y-127730000D01*
X192950000Y-120300000D02*
X192050000Y-120300000D01*
X192050000Y-120900000D02*
X192950000Y-120900000D01*
X194450000Y-122700000D02*
X193550000Y-122700000D01*
X190270000Y-129530000D02*
X191270000Y-129530000D01*
X191305454Y-123997488D02*
X192153982Y-124846016D01*
X191270000Y-127730000D02*
X190270000Y-127730000D01*
X194450000Y-121500000D02*
X193250000Y-121500000D01*
X191270000Y-125730000D02*
X191270000Y-126230000D01*
X192790381Y-124633886D02*
X191729718Y-123573224D01*
X191517588Y-125482414D02*
X191270000Y-125730000D01*
X193250000Y-122100000D02*
X194450000Y-122100000D01*
X191270000Y-128330000D02*
X192470000Y-128330000D01*
X191270000Y-131030000D02*
X191270000Y-131475000D01*
X190270000Y-130730000D02*
X190970000Y-130730000D01*
X192470000Y-128930000D02*
X191270000Y-128930000D01*
X192578248Y-126118810D02*
X191941852Y-125482414D01*
X191270000Y-130130000D02*
X190270000Y-130130000D01*
X190270000Y-130130000D02*
G75*
G03*
X189970000Y-130430000I0J-300000D01*
G01*
X192050000Y-120300000D02*
G75*
G03*
X191750000Y-120600000I0J-300000D01*
G01*
X191941851Y-125482415D02*
G75*
G03*
X191517589Y-125482415I-212131J-212131D01*
G01*
X192950000Y-120300000D02*
G75*
G03*
X193250000Y-120000000I0J300000D01*
G01*
X189970000Y-126830000D02*
G75*
G03*
X190270000Y-127130000I300000J0D01*
G01*
X189970000Y-129230000D02*
G75*
G03*
X190270000Y-129530000I300000J0D01*
G01*
X194750000Y-122400000D02*
G75*
G03*
X194450000Y-122100000I-300000J0D01*
G01*
X193002534Y-126118832D02*
G75*
G03*
X193002512Y-125694546I-212134J212132D01*
G01*
X192470000Y-127730000D02*
G75*
G03*
X192770000Y-127430000I0J300000D01*
G01*
X191270000Y-131030000D02*
G75*
G03*
X190970000Y-130730000I-300000J0D01*
G01*
X191305499Y-123573269D02*
G75*
G03*
X191305455Y-123997487I212101J-212131D01*
G01*
X192770000Y-127430000D02*
G75*
G03*
X192470000Y-127130000I-300000J0D01*
G01*
X189970000Y-128030000D02*
G75*
G03*
X190270000Y-128330000I300000J0D01*
G01*
X194450000Y-122700000D02*
G75*
G03*
X194750000Y-122400000I0J300000D01*
G01*
X190970000Y-126530000D02*
G75*
G03*
X191270000Y-126230000I0J300000D01*
G01*
X193426778Y-125270281D02*
G75*
G03*
X193851040Y-125270281I212131J212131D01*
G01*
X193550000Y-122700000D02*
G75*
G03*
X193250000Y-123000000I0J-300000D01*
G01*
X190270000Y-127730000D02*
G75*
G03*
X189970000Y-128030000I0J-300000D01*
G01*
X194750000Y-121200000D02*
G75*
G03*
X194450000Y-120900000I-300000J0D01*
G01*
X192770000Y-129830000D02*
G75*
G03*
X192470000Y-129530000I-300000J0D01*
G01*
X193214657Y-123785367D02*
G75*
G03*
X193214645Y-124209621I212143J-212133D01*
G01*
X190270000Y-126530000D02*
G75*
G03*
X189970000Y-126830000I0J-300000D01*
G01*
X194450000Y-121500000D02*
G75*
G03*
X194750000Y-121200000I0J300000D01*
G01*
X189970000Y-130430000D02*
G75*
G03*
X190270000Y-130730000I300000J0D01*
G01*
X190270000Y-128930000D02*
G75*
G03*
X189970000Y-129230000I0J-300000D01*
G01*
X193851091Y-125270332D02*
G75*
G03*
X193851041Y-124846018I-212191J212132D01*
G01*
X191750000Y-121800000D02*
G75*
G03*
X192050000Y-122100000I300000J0D01*
G01*
X191729717Y-123573225D02*
G75*
G03*
X191305455Y-123573225I-212131J-212131D01*
G01*
X192470000Y-128930000D02*
G75*
G03*
X192770000Y-128630000I0J300000D01*
G01*
X192050000Y-121500000D02*
G75*
G03*
X191750000Y-121800000I0J-300000D01*
G01*
X191750000Y-120600000D02*
G75*
G03*
X192050000Y-120900000I300000J0D01*
G01*
X192470000Y-130130000D02*
G75*
G03*
X192770000Y-129830000I0J300000D01*
G01*
X192770000Y-128630000D02*
G75*
G03*
X192470000Y-128330000I-300000J0D01*
G01*
X192578249Y-126118809D02*
G75*
G03*
X193002511Y-126118809I212131J212131D01*
G01*
%TO.N,/SCLK*%
X186254500Y-115770000D02*
X186250000Y-115774500D01*
X185700000Y-117400000D02*
X186000000Y-117700000D01*
X185300000Y-117000000D02*
X96500000Y-117000000D01*
X195000000Y-116250000D02*
X194520000Y-115770000D01*
X96500000Y-117000000D02*
X94000000Y-119500000D01*
X186000000Y-117700000D02*
X186000000Y-119800000D01*
X195050000Y-118650000D02*
X194802500Y-118402500D01*
X185700000Y-117400000D02*
X185300000Y-117000000D01*
X194520000Y-115770000D02*
X186254500Y-115770000D01*
X194802500Y-118402500D02*
X193250000Y-118402500D01*
X186200000Y-124400000D02*
X186200000Y-125502500D01*
X195902500Y-116250000D02*
X195000000Y-116250000D01*
X94000000Y-126000000D02*
X93000000Y-127000000D01*
X94000000Y-119500000D02*
X94000000Y-126000000D01*
%TO.N,/MCLK*%
X190500000Y-116402500D02*
X188100000Y-116402500D01*
X188100000Y-116402500D02*
X187000000Y-117502500D01*
X190500000Y-116402500D02*
X191152500Y-116402500D01*
X95847500Y-116402500D02*
X185900000Y-116402500D01*
X93000000Y-125000000D02*
X93000000Y-119250000D01*
X191152500Y-116402500D02*
X191250000Y-116500000D01*
X93000000Y-119250000D02*
X95847500Y-116402500D01*
X185900000Y-116402500D02*
X187000000Y-117502500D01*
%TO.N,/VIN*%
X183650000Y-134015000D02*
X178885000Y-129250000D01*
X181470000Y-104730000D02*
X182250000Y-104730000D01*
X137750000Y-134040000D02*
X140290000Y-134040000D01*
X199750000Y-132500000D02*
X199750000Y-134000000D01*
X232190000Y-134015000D02*
X199765000Y-134015000D01*
X141705000Y-132625000D02*
X146125000Y-132625000D01*
X146125000Y-132625000D02*
X146500000Y-132250000D01*
X183650000Y-134015000D02*
X186190000Y-134015000D01*
X197250000Y-118750000D02*
X197250000Y-130000000D01*
X178312500Y-105000000D02*
X181200000Y-105000000D01*
X178885000Y-129250000D02*
X148569010Y-129250000D01*
X146500000Y-131319009D02*
X146534505Y-131284505D01*
X197250000Y-130000000D02*
X199750000Y-132500000D01*
X184250000Y-110500000D02*
X182250000Y-108500000D01*
X194000000Y-110500000D02*
X184250000Y-110500000D01*
X182250000Y-108500000D02*
X182250000Y-104730000D01*
X181200000Y-105000000D02*
X181470000Y-104730000D01*
X199765000Y-134015000D02*
X199750000Y-134000000D01*
X140290000Y-134040000D02*
X141705000Y-132625000D01*
X146500000Y-132250000D02*
X146500000Y-131319009D01*
X148569010Y-129250000D02*
X146534505Y-131284505D01*
X197000000Y-113500000D02*
X194000000Y-110500000D01*
%TO.N,Net-(J5-Pin_5)*%
X234750000Y-130000000D02*
X234730000Y-130020000D01*
X190500000Y-117597500D02*
X222347500Y-117597500D01*
X234730000Y-130020000D02*
X234730000Y-131475000D01*
X222347500Y-117597500D02*
X234750000Y-130000000D01*
%TO.N,Net-(J5-Pin_7)*%
X197097500Y-116250000D02*
X223250000Y-116250000D01*
X237270000Y-130270000D02*
X237270000Y-131475000D01*
X223250000Y-116250000D02*
X237270000Y-130270000D01*
%TO.N,Net-(JP1-A)*%
X161685000Y-106015000D02*
X164250000Y-103450000D01*
X123000000Y-106015000D02*
X161685000Y-106015000D01*
X164250000Y-103450000D02*
X168750000Y-103450000D01*
%TO.N,Net-(JP1-C)*%
X171600000Y-104000000D02*
X173990000Y-104000000D01*
X168750000Y-104750000D02*
X170850000Y-104750000D01*
X170850000Y-104750000D02*
X171600000Y-104000000D01*
%TD*%
M02*
