%TF.GenerationSoftware,KiCad,Pcbnew,7.0.1*%
%TF.CreationDate,2023-03-30T15:17:14+02:00*%
%TF.ProjectId,BalancedSurroundOutBus,42616c61-6e63-4656-9453-7572726f756e,rev?*%
%TF.SameCoordinates,Original*%
%TF.FileFunction,Legend,Bot*%
%TF.FilePolarity,Positive*%
%FSLAX46Y46*%
G04 Gerber Fmt 4.6, Leading zero omitted, Abs format (unit mm)*
G04 Created by KiCad (PCBNEW 7.0.1) date 2023-03-30 15:17:14*
%MOMM*%
%LPD*%
G01*
G04 APERTURE LIST*
G04 Aperture macros list*
%AMRoundRect*
0 Rectangle with rounded corners*
0 $1 Rounding radius*
0 $2 $3 $4 $5 $6 $7 $8 $9 X,Y pos of 4 corners*
0 Add a 4 corners polygon primitive as box body*
4,1,4,$2,$3,$4,$5,$6,$7,$8,$9,$2,$3,0*
0 Add four circle primitives for the rounded corners*
1,1,$1+$1,$2,$3*
1,1,$1+$1,$4,$5*
1,1,$1+$1,$6,$7*
1,1,$1+$1,$8,$9*
0 Add four rect primitives between the rounded corners*
20,1,$1+$1,$2,$3,$4,$5,0*
20,1,$1+$1,$4,$5,$6,$7,0*
20,1,$1+$1,$6,$7,$8,$9,0*
20,1,$1+$1,$8,$9,$2,$3,0*%
G04 Aperture macros list end*
%ADD10C,0.150000*%
%ADD11C,0.120000*%
%ADD12R,1.700000X1.700000*%
%ADD13O,1.700000X1.700000*%
%ADD14R,1.600000X1.600000*%
%ADD15C,1.600000*%
%ADD16C,4.000000*%
%ADD17RoundRect,0.160000X-0.160000X0.197500X-0.160000X-0.197500X0.160000X-0.197500X0.160000X0.197500X0*%
%ADD18R,1.350000X1.350000*%
%ADD19O,1.350000X1.350000*%
%ADD20R,1.500000X1.000000*%
%ADD21RoundRect,0.150000X0.587500X0.150000X-0.587500X0.150000X-0.587500X-0.150000X0.587500X-0.150000X0*%
%ADD22RoundRect,0.135000X-0.185000X0.135000X-0.185000X-0.135000X0.185000X-0.135000X0.185000X0.135000X0*%
%ADD23RoundRect,0.135000X-0.135000X-0.185000X0.135000X-0.185000X0.135000X0.185000X-0.135000X0.185000X0*%
%ADD24RoundRect,0.140000X0.170000X-0.140000X0.170000X0.140000X-0.170000X0.140000X-0.170000X-0.140000X0*%
%ADD25RoundRect,0.160000X-0.197500X-0.160000X0.197500X-0.160000X0.197500X0.160000X-0.197500X0.160000X0*%
G04 APERTURE END LIST*
D10*
%TO.C,J3*%
X145083333Y-128712619D02*
X145083333Y-129426904D01*
X145083333Y-129426904D02*
X145130952Y-129569761D01*
X145130952Y-129569761D02*
X145226190Y-129665000D01*
X145226190Y-129665000D02*
X145369047Y-129712619D01*
X145369047Y-129712619D02*
X145464285Y-129712619D01*
X144702380Y-128712619D02*
X144083333Y-128712619D01*
X144083333Y-128712619D02*
X144416666Y-129093571D01*
X144416666Y-129093571D02*
X144273809Y-129093571D01*
X144273809Y-129093571D02*
X144178571Y-129141190D01*
X144178571Y-129141190D02*
X144130952Y-129188809D01*
X144130952Y-129188809D02*
X144083333Y-129284047D01*
X144083333Y-129284047D02*
X144083333Y-129522142D01*
X144083333Y-129522142D02*
X144130952Y-129617380D01*
X144130952Y-129617380D02*
X144178571Y-129665000D01*
X144178571Y-129665000D02*
X144273809Y-129712619D01*
X144273809Y-129712619D02*
X144559523Y-129712619D01*
X144559523Y-129712619D02*
X144654761Y-129665000D01*
X144654761Y-129665000D02*
X144702380Y-129617380D01*
%TO.C,J5*%
X237583333Y-128462619D02*
X237583333Y-129176904D01*
X237583333Y-129176904D02*
X237630952Y-129319761D01*
X237630952Y-129319761D02*
X237726190Y-129415000D01*
X237726190Y-129415000D02*
X237869047Y-129462619D01*
X237869047Y-129462619D02*
X237964285Y-129462619D01*
X236630952Y-128462619D02*
X237107142Y-128462619D01*
X237107142Y-128462619D02*
X237154761Y-128938809D01*
X237154761Y-128938809D02*
X237107142Y-128891190D01*
X237107142Y-128891190D02*
X237011904Y-128843571D01*
X237011904Y-128843571D02*
X236773809Y-128843571D01*
X236773809Y-128843571D02*
X236678571Y-128891190D01*
X236678571Y-128891190D02*
X236630952Y-128938809D01*
X236630952Y-128938809D02*
X236583333Y-129034047D01*
X236583333Y-129034047D02*
X236583333Y-129272142D01*
X236583333Y-129272142D02*
X236630952Y-129367380D01*
X236630952Y-129367380D02*
X236678571Y-129415000D01*
X236678571Y-129415000D02*
X236773809Y-129462619D01*
X236773809Y-129462619D02*
X237011904Y-129462619D01*
X237011904Y-129462619D02*
X237107142Y-129415000D01*
X237107142Y-129415000D02*
X237154761Y-129367380D01*
%TO.C,R4*%
X192542619Y-118833333D02*
X192066428Y-118500000D01*
X192542619Y-118261905D02*
X191542619Y-118261905D01*
X191542619Y-118261905D02*
X191542619Y-118642857D01*
X191542619Y-118642857D02*
X191590238Y-118738095D01*
X191590238Y-118738095D02*
X191637857Y-118785714D01*
X191637857Y-118785714D02*
X191733095Y-118833333D01*
X191733095Y-118833333D02*
X191875952Y-118833333D01*
X191875952Y-118833333D02*
X191971190Y-118785714D01*
X191971190Y-118785714D02*
X192018809Y-118738095D01*
X192018809Y-118738095D02*
X192066428Y-118642857D01*
X192066428Y-118642857D02*
X192066428Y-118261905D01*
X191875952Y-119690476D02*
X192542619Y-119690476D01*
X191495000Y-119452381D02*
X192209285Y-119214286D01*
X192209285Y-119214286D02*
X192209285Y-119833333D01*
%TO.C,R5*%
X189962619Y-113083333D02*
X189486428Y-112750000D01*
X189962619Y-112511905D02*
X188962619Y-112511905D01*
X188962619Y-112511905D02*
X188962619Y-112892857D01*
X188962619Y-112892857D02*
X189010238Y-112988095D01*
X189010238Y-112988095D02*
X189057857Y-113035714D01*
X189057857Y-113035714D02*
X189153095Y-113083333D01*
X189153095Y-113083333D02*
X189295952Y-113083333D01*
X189295952Y-113083333D02*
X189391190Y-113035714D01*
X189391190Y-113035714D02*
X189438809Y-112988095D01*
X189438809Y-112988095D02*
X189486428Y-112892857D01*
X189486428Y-112892857D02*
X189486428Y-112511905D01*
X188962619Y-113988095D02*
X188962619Y-113511905D01*
X188962619Y-113511905D02*
X189438809Y-113464286D01*
X189438809Y-113464286D02*
X189391190Y-113511905D01*
X189391190Y-113511905D02*
X189343571Y-113607143D01*
X189343571Y-113607143D02*
X189343571Y-113845238D01*
X189343571Y-113845238D02*
X189391190Y-113940476D01*
X189391190Y-113940476D02*
X189438809Y-113988095D01*
X189438809Y-113988095D02*
X189534047Y-114035714D01*
X189534047Y-114035714D02*
X189772142Y-114035714D01*
X189772142Y-114035714D02*
X189867380Y-113988095D01*
X189867380Y-113988095D02*
X189915000Y-113940476D01*
X189915000Y-113940476D02*
X189962619Y-113845238D01*
X189962619Y-113845238D02*
X189962619Y-113607143D01*
X189962619Y-113607143D02*
X189915000Y-113511905D01*
X189915000Y-113511905D02*
X189867380Y-113464286D01*
%TO.C,R2*%
X185492619Y-125933333D02*
X185016428Y-125600000D01*
X185492619Y-125361905D02*
X184492619Y-125361905D01*
X184492619Y-125361905D02*
X184492619Y-125742857D01*
X184492619Y-125742857D02*
X184540238Y-125838095D01*
X184540238Y-125838095D02*
X184587857Y-125885714D01*
X184587857Y-125885714D02*
X184683095Y-125933333D01*
X184683095Y-125933333D02*
X184825952Y-125933333D01*
X184825952Y-125933333D02*
X184921190Y-125885714D01*
X184921190Y-125885714D02*
X184968809Y-125838095D01*
X184968809Y-125838095D02*
X185016428Y-125742857D01*
X185016428Y-125742857D02*
X185016428Y-125361905D01*
X184587857Y-126314286D02*
X184540238Y-126361905D01*
X184540238Y-126361905D02*
X184492619Y-126457143D01*
X184492619Y-126457143D02*
X184492619Y-126695238D01*
X184492619Y-126695238D02*
X184540238Y-126790476D01*
X184540238Y-126790476D02*
X184587857Y-126838095D01*
X184587857Y-126838095D02*
X184683095Y-126885714D01*
X184683095Y-126885714D02*
X184778333Y-126885714D01*
X184778333Y-126885714D02*
X184921190Y-126838095D01*
X184921190Y-126838095D02*
X185492619Y-126266667D01*
X185492619Y-126266667D02*
X185492619Y-126885714D01*
%TO.C,J1*%
X96083333Y-122462619D02*
X96083333Y-123176904D01*
X96083333Y-123176904D02*
X96130952Y-123319761D01*
X96130952Y-123319761D02*
X96226190Y-123415000D01*
X96226190Y-123415000D02*
X96369047Y-123462619D01*
X96369047Y-123462619D02*
X96464285Y-123462619D01*
X95083333Y-123462619D02*
X95654761Y-123462619D01*
X95369047Y-123462619D02*
X95369047Y-122462619D01*
X95369047Y-122462619D02*
X95464285Y-122605476D01*
X95464285Y-122605476D02*
X95559523Y-122700714D01*
X95559523Y-122700714D02*
X95654761Y-122748333D01*
%TO.C,JP1*%
X166412619Y-103916666D02*
X167126904Y-103916666D01*
X167126904Y-103916666D02*
X167269761Y-103869047D01*
X167269761Y-103869047D02*
X167365000Y-103773809D01*
X167365000Y-103773809D02*
X167412619Y-103630952D01*
X167412619Y-103630952D02*
X167412619Y-103535714D01*
X167412619Y-104392857D02*
X166412619Y-104392857D01*
X166412619Y-104392857D02*
X166412619Y-104773809D01*
X166412619Y-104773809D02*
X166460238Y-104869047D01*
X166460238Y-104869047D02*
X166507857Y-104916666D01*
X166507857Y-104916666D02*
X166603095Y-104964285D01*
X166603095Y-104964285D02*
X166745952Y-104964285D01*
X166745952Y-104964285D02*
X166841190Y-104916666D01*
X166841190Y-104916666D02*
X166888809Y-104869047D01*
X166888809Y-104869047D02*
X166936428Y-104773809D01*
X166936428Y-104773809D02*
X166936428Y-104392857D01*
X167412619Y-105916666D02*
X167412619Y-105345238D01*
X167412619Y-105630952D02*
X166412619Y-105630952D01*
X166412619Y-105630952D02*
X166555476Y-105535714D01*
X166555476Y-105535714D02*
X166650714Y-105440476D01*
X166650714Y-105440476D02*
X166698333Y-105345238D01*
%TO.C,Q1*%
X179345238Y-103157857D02*
X179440476Y-103110238D01*
X179440476Y-103110238D02*
X179535714Y-103015000D01*
X179535714Y-103015000D02*
X179678571Y-102872142D01*
X179678571Y-102872142D02*
X179773809Y-102824523D01*
X179773809Y-102824523D02*
X179869047Y-102824523D01*
X179821428Y-103062619D02*
X179916666Y-103015000D01*
X179916666Y-103015000D02*
X180011904Y-102919761D01*
X180011904Y-102919761D02*
X180059523Y-102729285D01*
X180059523Y-102729285D02*
X180059523Y-102395952D01*
X180059523Y-102395952D02*
X180011904Y-102205476D01*
X180011904Y-102205476D02*
X179916666Y-102110238D01*
X179916666Y-102110238D02*
X179821428Y-102062619D01*
X179821428Y-102062619D02*
X179630952Y-102062619D01*
X179630952Y-102062619D02*
X179535714Y-102110238D01*
X179535714Y-102110238D02*
X179440476Y-102205476D01*
X179440476Y-102205476D02*
X179392857Y-102395952D01*
X179392857Y-102395952D02*
X179392857Y-102729285D01*
X179392857Y-102729285D02*
X179440476Y-102919761D01*
X179440476Y-102919761D02*
X179535714Y-103015000D01*
X179535714Y-103015000D02*
X179630952Y-103062619D01*
X179630952Y-103062619D02*
X179821428Y-103062619D01*
X178440476Y-103062619D02*
X179011904Y-103062619D01*
X178726190Y-103062619D02*
X178726190Y-102062619D01*
X178726190Y-102062619D02*
X178821428Y-102205476D01*
X178821428Y-102205476D02*
X178916666Y-102300714D01*
X178916666Y-102300714D02*
X179011904Y-102348333D01*
%TO.C,R8*%
X184462619Y-102083333D02*
X183986428Y-101750000D01*
X184462619Y-101511905D02*
X183462619Y-101511905D01*
X183462619Y-101511905D02*
X183462619Y-101892857D01*
X183462619Y-101892857D02*
X183510238Y-101988095D01*
X183510238Y-101988095D02*
X183557857Y-102035714D01*
X183557857Y-102035714D02*
X183653095Y-102083333D01*
X183653095Y-102083333D02*
X183795952Y-102083333D01*
X183795952Y-102083333D02*
X183891190Y-102035714D01*
X183891190Y-102035714D02*
X183938809Y-101988095D01*
X183938809Y-101988095D02*
X183986428Y-101892857D01*
X183986428Y-101892857D02*
X183986428Y-101511905D01*
X183891190Y-102654762D02*
X183843571Y-102559524D01*
X183843571Y-102559524D02*
X183795952Y-102511905D01*
X183795952Y-102511905D02*
X183700714Y-102464286D01*
X183700714Y-102464286D02*
X183653095Y-102464286D01*
X183653095Y-102464286D02*
X183557857Y-102511905D01*
X183557857Y-102511905D02*
X183510238Y-102559524D01*
X183510238Y-102559524D02*
X183462619Y-102654762D01*
X183462619Y-102654762D02*
X183462619Y-102845238D01*
X183462619Y-102845238D02*
X183510238Y-102940476D01*
X183510238Y-102940476D02*
X183557857Y-102988095D01*
X183557857Y-102988095D02*
X183653095Y-103035714D01*
X183653095Y-103035714D02*
X183700714Y-103035714D01*
X183700714Y-103035714D02*
X183795952Y-102988095D01*
X183795952Y-102988095D02*
X183843571Y-102940476D01*
X183843571Y-102940476D02*
X183891190Y-102845238D01*
X183891190Y-102845238D02*
X183891190Y-102654762D01*
X183891190Y-102654762D02*
X183938809Y-102559524D01*
X183938809Y-102559524D02*
X183986428Y-102511905D01*
X183986428Y-102511905D02*
X184081666Y-102464286D01*
X184081666Y-102464286D02*
X184272142Y-102464286D01*
X184272142Y-102464286D02*
X184367380Y-102511905D01*
X184367380Y-102511905D02*
X184415000Y-102559524D01*
X184415000Y-102559524D02*
X184462619Y-102654762D01*
X184462619Y-102654762D02*
X184462619Y-102845238D01*
X184462619Y-102845238D02*
X184415000Y-102940476D01*
X184415000Y-102940476D02*
X184367380Y-102988095D01*
X184367380Y-102988095D02*
X184272142Y-103035714D01*
X184272142Y-103035714D02*
X184081666Y-103035714D01*
X184081666Y-103035714D02*
X183986428Y-102988095D01*
X183986428Y-102988095D02*
X183938809Y-102940476D01*
X183938809Y-102940476D02*
X183891190Y-102845238D01*
%TO.C,R3*%
X188212619Y-113083333D02*
X187736428Y-112750000D01*
X188212619Y-112511905D02*
X187212619Y-112511905D01*
X187212619Y-112511905D02*
X187212619Y-112892857D01*
X187212619Y-112892857D02*
X187260238Y-112988095D01*
X187260238Y-112988095D02*
X187307857Y-113035714D01*
X187307857Y-113035714D02*
X187403095Y-113083333D01*
X187403095Y-113083333D02*
X187545952Y-113083333D01*
X187545952Y-113083333D02*
X187641190Y-113035714D01*
X187641190Y-113035714D02*
X187688809Y-112988095D01*
X187688809Y-112988095D02*
X187736428Y-112892857D01*
X187736428Y-112892857D02*
X187736428Y-112511905D01*
X187212619Y-113416667D02*
X187212619Y-114035714D01*
X187212619Y-114035714D02*
X187593571Y-113702381D01*
X187593571Y-113702381D02*
X187593571Y-113845238D01*
X187593571Y-113845238D02*
X187641190Y-113940476D01*
X187641190Y-113940476D02*
X187688809Y-113988095D01*
X187688809Y-113988095D02*
X187784047Y-114035714D01*
X187784047Y-114035714D02*
X188022142Y-114035714D01*
X188022142Y-114035714D02*
X188117380Y-113988095D01*
X188117380Y-113988095D02*
X188165000Y-113940476D01*
X188165000Y-113940476D02*
X188212619Y-113845238D01*
X188212619Y-113845238D02*
X188212619Y-113559524D01*
X188212619Y-113559524D02*
X188165000Y-113464286D01*
X188165000Y-113464286D02*
X188117380Y-113416667D01*
%TO.C,R1*%
X186212619Y-114183333D02*
X185736428Y-113850000D01*
X186212619Y-113611905D02*
X185212619Y-113611905D01*
X185212619Y-113611905D02*
X185212619Y-113992857D01*
X185212619Y-113992857D02*
X185260238Y-114088095D01*
X185260238Y-114088095D02*
X185307857Y-114135714D01*
X185307857Y-114135714D02*
X185403095Y-114183333D01*
X185403095Y-114183333D02*
X185545952Y-114183333D01*
X185545952Y-114183333D02*
X185641190Y-114135714D01*
X185641190Y-114135714D02*
X185688809Y-114088095D01*
X185688809Y-114088095D02*
X185736428Y-113992857D01*
X185736428Y-113992857D02*
X185736428Y-113611905D01*
X186212619Y-115135714D02*
X186212619Y-114564286D01*
X186212619Y-114850000D02*
X185212619Y-114850000D01*
X185212619Y-114850000D02*
X185355476Y-114754762D01*
X185355476Y-114754762D02*
X185450714Y-114659524D01*
X185450714Y-114659524D02*
X185498333Y-114564286D01*
%TO.C,J4*%
X191083333Y-128712619D02*
X191083333Y-129426904D01*
X191083333Y-129426904D02*
X191130952Y-129569761D01*
X191130952Y-129569761D02*
X191226190Y-129665000D01*
X191226190Y-129665000D02*
X191369047Y-129712619D01*
X191369047Y-129712619D02*
X191464285Y-129712619D01*
X190178571Y-129045952D02*
X190178571Y-129712619D01*
X190416666Y-128665000D02*
X190654761Y-129379285D01*
X190654761Y-129379285D02*
X190035714Y-129379285D01*
%TO.C,R7*%
X174666666Y-105632619D02*
X174999999Y-105156428D01*
X175238094Y-105632619D02*
X175238094Y-104632619D01*
X175238094Y-104632619D02*
X174857142Y-104632619D01*
X174857142Y-104632619D02*
X174761904Y-104680238D01*
X174761904Y-104680238D02*
X174714285Y-104727857D01*
X174714285Y-104727857D02*
X174666666Y-104823095D01*
X174666666Y-104823095D02*
X174666666Y-104965952D01*
X174666666Y-104965952D02*
X174714285Y-105061190D01*
X174714285Y-105061190D02*
X174761904Y-105108809D01*
X174761904Y-105108809D02*
X174857142Y-105156428D01*
X174857142Y-105156428D02*
X175238094Y-105156428D01*
X174333332Y-104632619D02*
X173666666Y-104632619D01*
X173666666Y-104632619D02*
X174095237Y-105632619D01*
%TO.C,C1*%
X182617380Y-101853333D02*
X182665000Y-101805714D01*
X182665000Y-101805714D02*
X182712619Y-101662857D01*
X182712619Y-101662857D02*
X182712619Y-101567619D01*
X182712619Y-101567619D02*
X182665000Y-101424762D01*
X182665000Y-101424762D02*
X182569761Y-101329524D01*
X182569761Y-101329524D02*
X182474523Y-101281905D01*
X182474523Y-101281905D02*
X182284047Y-101234286D01*
X182284047Y-101234286D02*
X182141190Y-101234286D01*
X182141190Y-101234286D02*
X181950714Y-101281905D01*
X181950714Y-101281905D02*
X181855476Y-101329524D01*
X181855476Y-101329524D02*
X181760238Y-101424762D01*
X181760238Y-101424762D02*
X181712619Y-101567619D01*
X181712619Y-101567619D02*
X181712619Y-101662857D01*
X181712619Y-101662857D02*
X181760238Y-101805714D01*
X181760238Y-101805714D02*
X181807857Y-101853333D01*
X182712619Y-102805714D02*
X182712619Y-102234286D01*
X182712619Y-102520000D02*
X181712619Y-102520000D01*
X181712619Y-102520000D02*
X181855476Y-102424762D01*
X181855476Y-102424762D02*
X181950714Y-102329524D01*
X181950714Y-102329524D02*
X181998333Y-102234286D01*
%TO.C,R6*%
X196666666Y-117882619D02*
X196999999Y-117406428D01*
X197238094Y-117882619D02*
X197238094Y-116882619D01*
X197238094Y-116882619D02*
X196857142Y-116882619D01*
X196857142Y-116882619D02*
X196761904Y-116930238D01*
X196761904Y-116930238D02*
X196714285Y-116977857D01*
X196714285Y-116977857D02*
X196666666Y-117073095D01*
X196666666Y-117073095D02*
X196666666Y-117215952D01*
X196666666Y-117215952D02*
X196714285Y-117311190D01*
X196714285Y-117311190D02*
X196761904Y-117358809D01*
X196761904Y-117358809D02*
X196857142Y-117406428D01*
X196857142Y-117406428D02*
X197238094Y-117406428D01*
X195809523Y-116882619D02*
X195999999Y-116882619D01*
X195999999Y-116882619D02*
X196095237Y-116930238D01*
X196095237Y-116930238D02*
X196142856Y-116977857D01*
X196142856Y-116977857D02*
X196238094Y-117120714D01*
X196238094Y-117120714D02*
X196285713Y-117311190D01*
X196285713Y-117311190D02*
X196285713Y-117692142D01*
X196285713Y-117692142D02*
X196238094Y-117787380D01*
X196238094Y-117787380D02*
X196190475Y-117835000D01*
X196190475Y-117835000D02*
X196095237Y-117882619D01*
X196095237Y-117882619D02*
X195904761Y-117882619D01*
X195904761Y-117882619D02*
X195809523Y-117835000D01*
X195809523Y-117835000D02*
X195761904Y-117787380D01*
X195761904Y-117787380D02*
X195714285Y-117692142D01*
X195714285Y-117692142D02*
X195714285Y-117454047D01*
X195714285Y-117454047D02*
X195761904Y-117358809D01*
X195761904Y-117358809D02*
X195809523Y-117311190D01*
X195809523Y-117311190D02*
X195904761Y-117263571D01*
X195904761Y-117263571D02*
X196095237Y-117263571D01*
X196095237Y-117263571D02*
X196190475Y-117311190D01*
X196190475Y-117311190D02*
X196238094Y-117358809D01*
X196238094Y-117358809D02*
X196285713Y-117454047D01*
D11*
%TO.C,J3*%
X151780000Y-130170000D02*
X151780000Y-135370000D01*
X139020000Y-130170000D02*
X151780000Y-130170000D01*
X139020000Y-130170000D02*
X139020000Y-132770000D01*
X137750000Y-130170000D02*
X136420000Y-130170000D01*
X136420000Y-130170000D02*
X136420000Y-131500000D01*
X139020000Y-132770000D02*
X136420000Y-132770000D01*
X136420000Y-132770000D02*
X136420000Y-135370000D01*
X136420000Y-135370000D02*
X151780000Y-135370000D01*
%TO.C,J5*%
X243680000Y-130145000D02*
X243680000Y-135345000D01*
X230920000Y-130145000D02*
X243680000Y-130145000D01*
X230920000Y-130145000D02*
X230920000Y-132745000D01*
X229650000Y-130145000D02*
X228320000Y-130145000D01*
X228320000Y-130145000D02*
X228320000Y-131475000D01*
X230920000Y-132745000D02*
X228320000Y-132745000D01*
X228320000Y-132745000D02*
X228320000Y-135345000D01*
X228320000Y-135345000D02*
X243680000Y-135345000D01*
%TO.C,R4*%
X193630000Y-118832379D02*
X193630000Y-119167621D01*
X192870000Y-118832379D02*
X192870000Y-119167621D01*
%TO.C,R5*%
X190880000Y-116832379D02*
X190880000Y-117167621D01*
X190120000Y-116832379D02*
X190120000Y-117167621D01*
%TO.C,R2*%
X186580000Y-125932379D02*
X186580000Y-126267621D01*
X185820000Y-125932379D02*
X185820000Y-126267621D01*
%TO.C,J1*%
X89940000Y-128060000D02*
X89940000Y-123940000D01*
X100000000Y-128060000D02*
X89940000Y-128060000D01*
X100000000Y-128060000D02*
X100000000Y-126000000D01*
X101000000Y-128060000D02*
X102060000Y-128060000D01*
X102060000Y-128060000D02*
X102060000Y-127000000D01*
X100000000Y-126000000D02*
X102060000Y-126000000D01*
X102060000Y-126000000D02*
X102060000Y-123940000D01*
X102060000Y-123940000D02*
X89940000Y-123940000D01*
%TO.C,JP1*%
X169750000Y-102700000D02*
X167750000Y-102700000D01*
X167750000Y-102700000D02*
X167750000Y-106800000D01*
X170250000Y-103150000D02*
X170250000Y-103750000D01*
X169950000Y-103450000D02*
X170250000Y-103150000D01*
X169950000Y-103450000D02*
X170250000Y-103750000D01*
X169750000Y-106800000D02*
X169750000Y-102700000D01*
X167750000Y-106800000D02*
X169750000Y-106800000D01*
%TO.C,Q1*%
X179250000Y-106560000D02*
X179900000Y-106560000D01*
X179250000Y-106560000D02*
X178600000Y-106560000D01*
X179250000Y-103440000D02*
X180925000Y-103440000D01*
X179250000Y-103440000D02*
X178600000Y-103440000D01*
%TO.C,R8*%
X184380000Y-104096359D02*
X184380000Y-104403641D01*
X183620000Y-104096359D02*
X183620000Y-104403641D01*
%TO.C,R3*%
X189130000Y-116832379D02*
X189130000Y-117167621D01*
X188370000Y-116832379D02*
X188370000Y-117167621D01*
%TO.C,R1*%
X187380000Y-117932379D02*
X187380000Y-118267621D01*
X186620000Y-117932379D02*
X186620000Y-118267621D01*
%TO.C,J4*%
X197680000Y-130145000D02*
X197680000Y-135345000D01*
X184920000Y-130145000D02*
X197680000Y-130145000D01*
X184920000Y-130145000D02*
X184920000Y-132745000D01*
X183650000Y-130145000D02*
X182320000Y-130145000D01*
X182320000Y-130145000D02*
X182320000Y-131475000D01*
X184920000Y-132745000D02*
X182320000Y-132745000D01*
X182320000Y-132745000D02*
X182320000Y-135345000D01*
X182320000Y-135345000D02*
X197680000Y-135345000D01*
%TO.C,R7*%
X174346359Y-103620000D02*
X174653641Y-103620000D01*
X174346359Y-104380000D02*
X174653641Y-104380000D01*
%TO.C,C1*%
X181890000Y-104357836D02*
X181890000Y-104142164D01*
X182610000Y-104357836D02*
X182610000Y-104142164D01*
%TO.C,R6*%
X196332379Y-115870000D02*
X196667621Y-115870000D01*
X196332379Y-116630000D02*
X196667621Y-116630000D01*
%TD*%
%LPC*%
D12*
%TO.C,ON1*%
X123000000Y-103475000D03*
D13*
X123000000Y-106015000D03*
%TD*%
D14*
%TO.C,J2*%
X107750000Y-87000000D03*
D15*
X110250000Y-87000000D03*
X110250000Y-85000000D03*
X107750000Y-85000000D03*
D16*
X103000000Y-82140000D03*
X115000000Y-82140000D03*
%TD*%
D12*
%TO.C,GND1*%
X200225000Y-119750000D03*
D13*
X202765000Y-119750000D03*
%TD*%
D12*
%TO.C,PWR1*%
X107725000Y-93500000D03*
D13*
X110265000Y-93500000D03*
%TD*%
D12*
%TO.C,J3*%
X137750000Y-131500000D03*
D13*
X137750000Y-134040000D03*
X140290000Y-131500000D03*
X140290000Y-134040000D03*
X142830000Y-131500000D03*
X142830000Y-134040000D03*
X145370000Y-131500000D03*
X145370000Y-134040000D03*
X147910000Y-131500000D03*
X147910000Y-134040000D03*
X150450000Y-131500000D03*
X150450000Y-134040000D03*
%TD*%
D12*
%TO.C,J5*%
X229650000Y-131475000D03*
D13*
X229650000Y-134015000D03*
X232190000Y-131475000D03*
X232190000Y-134015000D03*
X234730000Y-131475000D03*
X234730000Y-134015000D03*
X237270000Y-131475000D03*
X237270000Y-134015000D03*
X239810000Y-131475000D03*
X239810000Y-134015000D03*
X242350000Y-131475000D03*
X242350000Y-134015000D03*
%TD*%
D17*
%TO.C,R4*%
X193250000Y-118402500D03*
X193250000Y-119597500D03*
%TD*%
%TO.C,R5*%
X190500000Y-116402500D03*
X190500000Y-117597500D03*
%TD*%
%TO.C,R2*%
X186200000Y-125502500D03*
X186200000Y-126697500D03*
%TD*%
D18*
%TO.C,J1*%
X101000000Y-127000000D03*
D19*
X101000000Y-125000000D03*
X99000000Y-127000000D03*
X99000000Y-125000000D03*
X97000000Y-127000000D03*
X97000000Y-125000000D03*
X95000000Y-127000000D03*
X95000000Y-125000000D03*
X93000000Y-127000000D03*
X93000000Y-125000000D03*
X91000000Y-127000000D03*
X91000000Y-125000000D03*
%TD*%
D20*
%TO.C,JP1*%
X168750000Y-103450000D03*
X168750000Y-104750000D03*
X168750000Y-106050000D03*
%TD*%
D21*
%TO.C,Q1*%
X180187500Y-104050000D03*
X180187500Y-105950000D03*
X178312500Y-105000000D03*
%TD*%
D22*
%TO.C,R8*%
X184000000Y-103740000D03*
X184000000Y-104760000D03*
%TD*%
D17*
%TO.C,R3*%
X188750000Y-116402500D03*
X188750000Y-117597500D03*
%TD*%
%TO.C,R1*%
X187000000Y-117502500D03*
X187000000Y-118697500D03*
%TD*%
D12*
%TO.C,J4*%
X183650000Y-131475000D03*
D13*
X183650000Y-134015000D03*
X186190000Y-131475000D03*
X186190000Y-134015000D03*
X188730000Y-131475000D03*
X188730000Y-134015000D03*
X191270000Y-131475000D03*
X191270000Y-134015000D03*
X193810000Y-131475000D03*
X193810000Y-134015000D03*
X196350000Y-131475000D03*
X196350000Y-134015000D03*
%TD*%
D23*
%TO.C,R7*%
X173990000Y-104000000D03*
X175010000Y-104000000D03*
%TD*%
D24*
%TO.C,C1*%
X182250000Y-104730000D03*
X182250000Y-103770000D03*
%TD*%
D25*
%TO.C,R6*%
X195902500Y-116250000D03*
X197097500Y-116250000D03*
%TD*%
M02*
