%TF.GenerationSoftware,KiCad,Pcbnew,7.0.1*%
%TF.CreationDate,2023-03-30T15:17:14+02:00*%
%TF.ProjectId,BalancedSurroundOutBus,42616c61-6e63-4656-9453-7572726f756e,rev?*%
%TF.SameCoordinates,Original*%
%TF.FileFunction,Profile,NP*%
%FSLAX46Y46*%
G04 Gerber Fmt 4.6, Leading zero omitted, Abs format (unit mm)*
G04 Created by KiCad (PCBNEW 7.0.1) date 2023-03-30 15:17:14*
%MOMM*%
%LPD*%
G01*
G04 APERTURE LIST*
%TA.AperFunction,Profile*%
%ADD10C,0.100000*%
%TD*%
G04 APERTURE END LIST*
D10*
X137000000Y-123000000D02*
G75*
G03*
X136000000Y-124000000I0J-1000000D01*
G01*
X136000000Y-124000000D02*
X136000000Y-135000000D01*
X182000000Y-120500000D02*
G75*
G03*
X181500000Y-120000000I-500000J0D01*
G01*
X244000000Y-136000000D02*
G75*
G03*
X245000000Y-135000000I0J1000000D01*
G01*
X137000000Y-136000000D02*
X244000000Y-136000000D01*
X101500000Y-109000000D02*
G75*
G03*
X102500000Y-110000000I1000000J0D01*
G01*
X102000000Y-120000000D02*
X136000000Y-120000000D01*
X105000000Y-86500000D02*
G75*
G03*
X106500000Y-86500000I750000J0D01*
G01*
X181500000Y-110000000D02*
X102500000Y-110000000D01*
X182500000Y-111000000D02*
G75*
G03*
X181500000Y-110000000I-1000000J0D01*
G01*
X111500000Y-85000000D02*
X111500000Y-86500000D01*
X107500000Y-84000000D02*
G75*
G03*
X106500000Y-85000000I0J-1000000D01*
G01*
X182000000Y-120500000D02*
X182000000Y-122500000D01*
X181500000Y-123000000D02*
G75*
G03*
X182000000Y-122500000I0J500000D01*
G01*
X105000000Y-80500000D02*
X105000000Y-86500000D01*
X91000000Y-115000000D02*
G75*
G03*
X90000000Y-116000000I0J-1000000D01*
G01*
X244500000Y-100000000D02*
X117500000Y-100000000D01*
X107500000Y-84000000D02*
X110500000Y-84000000D01*
X90000000Y-116000000D02*
X90000000Y-128000000D01*
X116000000Y-99500000D02*
G75*
G03*
X116500000Y-100000000I500000J0D01*
G01*
X102500000Y-79500000D02*
X104000000Y-79500000D01*
X181500000Y-123000000D02*
X137000000Y-123000000D01*
X136000000Y-120000000D02*
X181500000Y-120000000D01*
X102500000Y-79500000D02*
G75*
G03*
X101500000Y-80500000I0J-1000000D01*
G01*
X114000000Y-82000000D02*
X116000000Y-82000000D01*
X101500000Y-80500000D02*
X101500000Y-109000000D01*
X106500000Y-86500000D02*
X106500000Y-85000000D01*
X182500000Y-114000000D02*
X182500000Y-111000000D01*
X136000000Y-135000000D02*
G75*
G03*
X137000000Y-136000000I1000000J0D01*
G01*
X114000000Y-86500000D02*
X114000000Y-82000000D01*
X111500000Y-85000000D02*
G75*
G03*
X110500000Y-84000000I-1000000J0D01*
G01*
X181500000Y-115000000D02*
G75*
G03*
X182500000Y-114000000I0J1000000D01*
G01*
X245000000Y-135000000D02*
X245000000Y-100500000D01*
X245000000Y-100500000D02*
G75*
G03*
X244500000Y-100000000I-500000J0D01*
G01*
X111500000Y-86500000D02*
G75*
G03*
X114000000Y-86500000I1250000J0D01*
G01*
X105000000Y-80500000D02*
G75*
G03*
X104000000Y-79500000I-1000000J0D01*
G01*
X90000000Y-128000000D02*
X102000000Y-128000000D01*
X102000000Y-128000000D02*
X102000000Y-120000000D01*
X181500000Y-115000000D02*
X91000000Y-115000000D01*
X116000000Y-82000000D02*
X116000000Y-99500000D01*
X116500000Y-100000000D02*
X117500000Y-100000000D01*
M02*
