M48
INCH
T1C0.0118
T2C0.0315
T3C0.0374
T4C0.0394
%
G90
G05
T1
X5.5748Y-5.1417
X7.2244Y-4.813
X7.2441Y-4.1654
X7.2795Y-4.5472
X7.2795Y-4.6496
X7.311Y-4.622
X7.3228Y-4.7165
X7.3307Y-4.8976
X7.3327Y-4.5581
X7.3327Y-4.7736
X7.3622Y-4.8543
X7.5295Y-4.5866
X7.6378Y-4.3504
X7.6772Y-4.5768
X7.6791Y-4.6713
X7.7264Y-4.498
X7.7264Y-4.6752
X7.7559Y-4.4685
X7.7657Y-4.6752
X7.8642Y-5.2756
T2
X3.5827Y-4.9213
X3.5827Y-5.0
X3.6614Y-4.9213
X3.6614Y-5.0
X3.7402Y-4.9213
X3.7402Y-5.0
X3.8189Y-4.9213
X3.8189Y-5.0
X3.8976Y-4.9213
X3.8976Y-5.0
X3.9764Y-4.9213
X3.9764Y-5.0
T3
X4.2421Y-3.3465
X4.2421Y-3.4252
X4.3406Y-3.3465
X4.3406Y-3.4252
T4
X4.2411Y-3.6811
X4.3411Y-3.6811
X4.8425Y-4.0738
X4.8425Y-4.1738
X5.4232Y-5.1772
X5.4232Y-5.2772
X5.5232Y-5.1772
X5.5232Y-5.2772
X5.6232Y-5.1772
X5.6232Y-5.2772
X5.7232Y-5.1772
X5.7232Y-5.2772
X5.8232Y-5.1772
X5.8232Y-5.2772
X5.9232Y-5.1772
X5.9232Y-5.2772
X7.2303Y-5.1762
X7.2303Y-5.2762
X7.3303Y-5.1762
X7.3303Y-5.2762
X7.4303Y-5.1762
X7.4303Y-5.2762
X7.5303Y-5.1762
X7.5303Y-5.2762
X7.6303Y-5.1762
X7.6303Y-5.2762
X7.7303Y-5.1762
X7.7303Y-5.2762
X7.8829Y-4.7146
X7.9829Y-4.7146
X9.0413Y-5.1762
X9.0413Y-5.2762
X9.1413Y-5.1762
X9.1413Y-5.2762
X9.2413Y-5.1762
X9.2413Y-5.2762
X9.3413Y-5.1762
X9.3413Y-5.2762
X9.4413Y-5.1762
X9.4413Y-5.2762
X9.5413Y-5.1762
X9.5413Y-5.2762
T0
M30
